<?xml version="1.0" encoding="utf-8"?>
<!-- Generator: Adobe Illustrator 24.0.0, SVG Export Plug-In . SVG Version: 6.00 Build 0)  -->
<svg version="1.1" id="montserrat_-_choosed_one" xmlns="http://www.w3.org/2000/svg" xmlns:xlink="http://www.w3.org/1999/xlink"
	 x="0px" y="0px" viewBox="0 0 730.5 138.6" style="enable-background:new 0 0 730.5 138.6;" xml:space="preserve">
<style type="text/css">
	.st0{fill:#1D2327;}
	.st1{clip-path:url(#SVGID_2_);fill:url(#SVGID_3_);}
	.st2{clip-path:url(#SVGID_5_);fill:url(#SVGID_6_);}
	.st3{clip-path:url(#SVGID_8_);fill:url(#SVGID_9_);}
	.st4{opacity:0.15;fill-rule:evenodd;clip-rule:evenodd;}
</style>
<g id="Calque_2_-_copie">
	<g>
		<g>
			<path class="st0" d="M171.3,96.7h-38.7c0.8,2.8,2.3,4.9,4.6,6.3c2.3,1.5,5.1,2.2,8.5,2.2c2.6,0,4.8-0.4,6.6-1.1
				c1.9-0.7,3.7-1.9,5.7-3.5l9.8,10.2c-5.2,5.8-12.7,8.6-22.7,8.6c-6.2,0-11.7-1.2-16.4-3.5c-4.7-2.4-8.4-5.6-11-9.8
				c-2.6-4.2-3.9-8.9-3.9-14.3c0-5.2,1.3-9.9,3.8-14.1c2.5-4.2,6-7.4,10.5-9.8c4.5-2.4,9.5-3.5,15-3.5c5.3,0,10.1,1.1,14.4,3.3
				c4.3,2.2,7.7,5.4,10.3,9.5c2.5,4.2,3.8,9.1,3.8,14.8C171.6,92.2,171.5,93.8,171.3,96.7z M136,80.2c-1.9,1.6-3.2,3.9-3.7,6.7h21.8
				c-0.5-2.8-1.8-5-3.7-6.7c-1.9-1.6-4.3-2.5-7.2-2.5C140.3,77.7,137.9,78.6,136,80.2z"/>
			<path class="st0" d="M180.3,45.7H199v72.9h-18.7V45.7z"/>
			<path class="st0" d="M212.1,56.6c-2.1-1.9-3.1-4.3-3.1-7.1c0-2.8,1-5.2,3.1-7.1c2.1-1.9,4.8-2.8,8.3-2.8c3.4,0,6.2,0.9,8.3,2.7
				c2.1,1.8,3.1,4.1,3.1,6.9c0,2.9-1,5.4-3.1,7.3c-2.1,1.9-4.8,2.9-8.3,2.9C217,59.5,214.2,58.5,212.1,56.6z M211,65.4h18.7v53.3
				H211V65.4z"/>
			<path class="st0" d="M297.9,65.4l-22,53.3h-19.3l-21.9-53.3h19.2l12.8,32.5l13.5-32.5H297.9z"/>
			<path class="st0" d="M355.4,96.7h-38.7c0.8,2.8,2.3,4.9,4.6,6.3c2.3,1.5,5.1,2.2,8.5,2.2c2.6,0,4.8-0.4,6.6-1.1
				c1.9-0.7,3.7-1.9,5.7-3.5l9.8,10.2c-5.2,5.8-12.7,8.6-22.7,8.6c-6.2,0-11.7-1.2-16.4-3.5c-4.7-2.4-8.4-5.6-11-9.8
				c-2.6-4.2-3.9-8.9-3.9-14.3c0-5.2,1.3-9.9,3.8-14.1c2.5-4.2,6-7.4,10.5-9.8c4.5-2.4,9.5-3.5,15-3.5c5.3,0,10.1,1.1,14.4,3.3
				c4.3,2.2,7.7,5.4,10.3,9.5c2.5,4.2,3.8,9.1,3.8,14.8C355.7,92.2,355.6,93.8,355.4,96.7z M320.1,80.2c-1.9,1.6-3.2,3.9-3.7,6.7
				h21.8c-0.5-2.8-1.8-5-3.7-6.7c-1.9-1.6-4.3-2.5-7.2-2.5C324.4,77.7,322,78.6,320.1,80.2z"/>
			<path class="st0" d="M389.6,66.3c3-1.2,6.5-1.8,10.5-1.8v16.8c-1.7-0.2-3.1-0.3-4.2-0.3c-4,0-7.1,1.1-9.4,3.2
				c-2.3,2.2-3.4,5.5-3.4,9.9v24.5h-18.7V65.4h17.8v6.4C384,69.3,386.5,67.5,389.6,66.3z"/>
			<path class="st0" d="M465.5,65.4l-23,55.4c-2.7,6.6-6,11.2-9.8,13.8c-3.9,2.7-8.6,4-14.2,4c-2.8,0-5.7-0.4-8.5-1.3
				c-2.9-0.9-5.2-2-6.9-3.5l6.5-13.1c1,1,2.3,1.8,3.8,2.3c1.5,0.6,3,0.8,4.5,0.8c1.8,0,3.2-0.4,4.4-1.1c1.1-0.7,2.1-1.9,2.9-3.4
				l-22.8-54h19.2l13.1,32.5l13.2-32.5H465.5z"/>
			<path class="st0" d="M545.9,105.3h-29.1l-5.4,13.4h-19.9l30.4-68.8H541l30.5,68.8h-20.2L545.9,105.3z M540.2,90.9l-8.8-22
				l-8.8,22H540.2z"/>
			<path class="st0" d="M601.3,66.3c3-1.2,6.5-1.8,10.5-1.8v16.8c-1.7-0.2-3.1-0.3-4.2-0.3c-4,0-7.1,1.1-9.4,3.2
				c-2.3,2.2-3.4,5.5-3.4,9.9v24.5h-18.7V65.4h17.8v6.4C595.8,69.3,598.3,67.5,601.3,66.3z"/>
			<path class="st0" d="M673.1,96.7h-38.7c0.8,2.8,2.3,4.9,4.6,6.3c2.3,1.5,5.1,2.2,8.5,2.2c2.6,0,4.8-0.4,6.6-1.1
				c1.9-0.7,3.8-1.9,5.7-3.5l9.8,10.2c-5.2,5.8-12.7,8.6-22.7,8.6c-6.2,0-11.7-1.2-16.4-3.5c-4.7-2.4-8.4-5.6-11-9.8
				c-2.6-4.2-3.9-8.9-3.9-14.3c0-5.2,1.3-9.9,3.8-14.1c2.5-4.2,6-7.4,10.5-9.8c4.5-2.4,9.5-3.5,15-3.5c5.3,0,10.1,1.1,14.4,3.3
				c4.3,2.2,7.7,5.4,10.3,9.5c2.5,4.2,3.8,9.1,3.8,14.8C673.4,92.2,673.3,93.8,673.1,96.7z M637.8,80.2c-1.9,1.6-3.2,3.9-3.7,6.7
				h21.8c-0.5-2.8-1.8-5-3.7-6.7c-1.9-1.6-4.3-2.5-7.2-2.5C642.1,77.7,639.7,78.6,637.8,80.2z"/>
			<path class="st0" d="M723.5,70.5c4.7,4,7,10.2,7,18.5v29.6h-17.4v-6.9c-2.7,5.2-7.9,7.8-15.7,7.8c-4.1,0-7.7-0.7-10.7-2.2
				c-3-1.4-5.3-3.4-6.8-5.8c-1.5-2.5-2.3-5.3-2.3-8.4c0-5,1.9-9,5.8-11.7c3.9-2.8,9.8-4.2,17.9-4.2h10.6c-0.3-5.6-4.1-8.5-11.3-8.5
				c-2.6,0-5.1,0.4-7.8,1.2c-2.6,0.8-4.8,2-6.7,3.4l-6.3-12.7c2.9-2,6.5-3.5,10.8-4.6s8.5-1.6,12.7-1.6
				C712.1,64.5,718.9,66.5,723.5,70.5z M708.3,106.1c1.6-1,2.8-2.6,3.5-4.6v-4.6h-8.1c-5.4,0-8.2,1.8-8.2,5.4c0,1.6,0.6,2.9,1.9,3.9
				c1.2,1,2.9,1.5,5.1,1.5S706.7,107.2,708.3,106.1z"/>
		</g>
	</g>
</g>
<g id="Calque_3_-_copie">
	<g>
		<defs>
			<polygon id="SVGID_1_" points="58.9,98 29.5,98 18,107.5 14.7,123.5 33.2,123.5 38,123.5 73.6,123.5 91.5,92.6 109.3,61.8 
				94.6,36.2 79.8,61.8 			"/>
		</defs>
		<clipPath id="SVGID_2_">
			<use xlink:href="#SVGID_1_"  style="overflow:visible;"/>
		</clipPath>
		
			<linearGradient id="SVGID_3_" gradientUnits="userSpaceOnUse" x1="370.0678" y1="657.0407" x2="174.2962" y2="478.3124" gradientTransform="matrix(-1.271691e-05 0.4462 -0.4462 0 311.9403 -37.8873)">
			<stop  offset="0" style="stop-color:#0478D6"/>
			<stop  offset="0.47" style="stop-color:#1ABC9C"/>
			<stop  offset="1" style="stop-color:#B0F122"/>
		</linearGradient>
		<rect x="14.7" y="36.2" class="st1" width="94.6" height="87.3"/>
	</g>
	<g>
		<defs>
			<polygon id="SVGID_4_" points="0,25.5 8.5,40.3 20.9,61.8 8.5,83.2 0,98 14.7,123.5 29.5,98 32.6,92.6 50.4,61.8 32.6,30.9 
				29.5,25.5 15.5,20.7 			"/>
		</defs>
		<clipPath id="SVGID_5_">
			<use xlink:href="#SVGID_4_"  style="overflow:visible;"/>
		</clipPath>
		
			<linearGradient id="SVGID_6_" gradientUnits="userSpaceOnUse" x1="120.5205" y1="642.6941" x2="361.7513" y2="642.6941" gradientTransform="matrix(-1.271691e-05 0.4462 -0.4462 0 311.9403 -37.8873)">
			<stop  offset="0" style="stop-color:#BE43CC"/>
			<stop  offset="0.49" style="stop-color:#FF5496"/>
			<stop  offset="1" style="stop-color:#FFBB33"/>
		</linearGradient>
		<rect x="0" y="20.7" class="st2" width="50.4" height="102.8"/>
	</g>
	<g>
		<defs>
			<polygon id="SVGID_7_" points="29.5,25.5 58.9,25.5 79.8,61.8 94.6,36.2 91.5,30.9 73.6,0 38,0 31.2,0 14.7,0 0,25.5 			"/>
		</defs>
		<clipPath id="SVGID_8_">
			<use xlink:href="#SVGID_7_"  style="overflow:visible;"/>
		</clipPath>
		
			<linearGradient id="SVGID_9_" gradientUnits="userSpaceOnUse" x1="154.1275" y1="477.8252" x2="154.1275" y2="672.309" gradientTransform="matrix(-1.271691e-05 0.4462 -0.4462 0 311.9403 -37.8873)">
			<stop  offset="0" style="stop-color:#0287D0"/>
			<stop  offset="0.45" style="stop-color:#8A5FEE"/>
			<stop  offset="1" style="stop-color:#E05EC8"/>
		</linearGradient>
		<rect x="0" y="0" class="st3" width="94.6" height="61.8"/>
	</g>
	<polygon class="st4" points="0,25.5 0.6,26.5 32.9,31.4 29.5,25.5 	"/>
	<polygon class="st4" points="93.9,35.1 77,56.9 79.8,61.8 94.6,36.2 	"/>
	<polygon class="st4" points="29.5,98 36.7,98 17.1,123.5 14.7,123.5 	"/>
</g>
</svg>
